<?xml version="1.0" encoding="UTF-8" ?>
<!DOCTYPE svg PUBLIC "-//W3C//DTD SVG 1.1//EN" "http://www.w3.org/Graphics/SVG/1.1/DTD/svg11.dtd">
<svg width="171pt" height="206pt" viewBox="0 0 171 206" version="1.1" xmlns="http://www.w3.org/2000/svg">
<path fill="#ffffff" d=" M 71.16 14.16 C 75.77 9.79 79.81 4.80 84.95 1.02 C 89.50 4.80 93.37 9.29 97.58 13.43 C 111.77 27.57 125.85 41.83 140.00 56.01 C 155.75 69.85 166.24 89.58 168.64 110.43 C 170.01 116.92 170.04 123.57 169.05 130.12 C 167.54 141.86 163.57 153.30 157.40 163.42 C 151.90 172.26 145.49 180.83 136.72 186.67 C 122.24 197.85 104.14 204.32 85.83 204.48 C 75.98 203.92 66.16 202.18 56.81 199.02 C 45.77 195.13 36.04 188.31 27.11 180.87 C 23.44 177.85 20.60 174.00 17.85 170.15 C 7.09 155.44 0.55 137.34 1.07 119.00 C 0.72 95.90 11.70 73.88 27.62 57.61 C 42.07 43.07 56.66 28.66 71.16 14.16 Z" />
<path fill="#d60054" d=" M 73.60 29.60 C 77.35 25.88 80.87 21.90 85.02 18.60 C 86.39 19.70 87.71 20.84 89.01 22.02 C 100.56 33.79 112.27 45.40 123.86 57.13 C 129.32 62.67 135.23 67.76 140.38 73.60 C 151.95 87.57 158.03 105.95 157.01 124.07 C 156.16 137.53 151.58 150.75 143.72 161.73 C 134.58 175.03 120.43 184.54 105.02 189.03 C 89.73 193.59 73.00 192.44 58.17 186.75 C 43.10 180.41 29.81 169.40 22.11 154.83 C 9.43 132.74 10.01 103.99 23.38 82.35 C 28.30 73.60 36.04 67.05 43.05 60.05 C 53.24 49.91 63.40 39.74 73.60 29.60 Z" />
</svg>
